<svg width="54" height="54" viewBox="0 0 54 54" fill="none" xmlns="http://www.w3.org/2000/svg">
<path d="M22.5 23.625V20.25C22.5 17.7647 24.5147 15.75 27 15.75C29.4854 15.75 31.5 17.7647 31.5 20.25V23.625M25.3125 36H28.6875C31.3263 36 32.6457 36 33.5545 35.3025C33.7885 35.1229 33.998 34.9135 34.1775 34.6795C34.875 33.7707 34.875 32.4513 34.875 29.8125C34.875 27.1737 34.875 25.8543 34.1775 24.9455C33.998 24.7115 33.7885 24.5021 33.5545 24.3225C32.6457 23.625 31.3263 23.625 28.6875 23.625H25.3125C22.6737 23.625 21.3543 23.625 20.4454 24.3225C20.2114 24.5021 20.002 24.7115 19.8224 24.9455C19.125 25.8543 19.125 27.1737 19.125 29.8125C19.125 32.4513 19.125 33.7707 19.8224 34.6795C20.002 34.9135 20.2114 35.1229 20.4454 35.3025C21.3543 36 22.6737 36 25.3125 36Z" stroke="black" stroke-width="2" stroke-linejoin="round"/>
<path d="M47.25 25.1624V18.6307C47.25 14.9407 47.25 13.0956 46.3408 11.8919C45.4315 10.6882 43.3757 10.1038 39.2641 8.93498C36.455 8.13645 33.9786 7.17442 32.0002 6.29615C29.3026 5.09872 27.954 4.5 27 4.5C26.046 4.5 24.6973 5.09872 21.9998 6.29615C20.0214 7.17442 17.5451 8.13643 14.736 8.93498C10.6243 10.1038 8.56849 10.6882 7.65925 11.8919C6.75 13.0956 6.75 14.9407 6.75 18.6307V25.1624C6.75 37.8191 18.1412 45.4129 23.8365 48.4186C25.2025 49.1395 25.8853 49.5 27 49.5C28.1147 49.5 28.7975 49.1395 30.1635 48.4186C35.8587 45.4129 47.25 37.8191 47.25 25.1624Z" stroke="black" stroke-width="2" stroke-linecap="round"/>
</svg>
