<svg width="54" height="54" viewBox="0 0 54 54" fill="none" xmlns="http://www.w3.org/2000/svg">
<path d="M31.5 41.625C31.5 41.625 33.75 41.625 36 46.125C36 46.125 43.1471 34.875 49.5 32.625" stroke="black" stroke-width="2" stroke-linecap="round" stroke-linejoin="round"/>
<path d="M12.3749 25.875H12.3547" stroke="black" stroke-width="2" stroke-linecap="round" stroke-linejoin="round"/>
<path d="M24.75 43.875H23.625C15.1682 43.875 10.9398 43.875 8.11679 41.6455C7.66526 41.2888 7.24768 40.896 6.8688 40.471C4.5 37.814 4.5 33.8344 4.5 25.875C4.5 17.9157 4.5 13.936 6.8688 11.279C7.24768 10.8541 7.66526 10.461 8.11679 10.1045C10.9398 7.875 15.1682 7.875 23.625 7.875H30.375C38.8318 7.875 43.0603 7.875 45.8831 10.1045C46.3347 10.461 46.7523 10.8541 47.1312 11.279C49.2653 13.6729 49.4768 17.1405 49.4978 23.625V24.75" stroke="black" stroke-width="2" stroke-linecap="round" stroke-linejoin="round"/>
<path d="M32.625 25.875C32.625 28.9816 30.1066 31.5 27 31.5C23.8934 31.5 21.375 28.9816 21.375 25.875C21.375 22.7684 23.8934 20.25 27 20.25C30.1066 20.25 32.625 22.7684 32.625 25.875Z" stroke="black" stroke-width="2"/>
</svg>
