<svg width="54" height="54" viewBox="0 0 54 54" fill="none" xmlns="http://www.w3.org/2000/svg">
<path d="M38.25 47.2502C40.7353 47.2502 42.75 45.2355 42.75 42.7502C42.75 40.265 40.7353 38.2502 38.25 38.2502C35.7647 38.2502 33.75 40.265 33.75 42.7502C33.75 45.2355 35.7647 47.2502 38.25 47.2502Z" stroke="black" stroke-width="2"/>
<path d="M15.75 47.2502C18.2353 47.2502 20.25 45.2355 20.25 42.7502C20.25 40.265 18.2353 38.2502 15.75 38.2502C13.2647 38.2502 11.25 40.265 11.25 42.7502C11.25 45.2355 13.2647 47.2502 15.75 47.2502Z" stroke="black" stroke-width="2"/>
<path d="M4.5 20.2502V31.3809C4.5 36.7404 4.5 39.4202 6.14752 41.0852C7.24297 42.1924 8.78238 42.5632 11.25 42.6876M27.961 11.2502C30.0159 11.925 31.6269 13.5532 32.2947 15.63C32.625 16.6575 32.625 17.9272 32.625 20.4665C32.625 22.1594 32.625 23.006 32.8453 23.6909C33.2903 25.0753 34.3645 26.1609 35.7345 26.6107C36.4122 26.8332 37.2499 26.8332 38.925 26.8332H49.5V31.3809C49.5 36.7404 49.5 39.4202 47.8525 41.0852C46.757 42.1924 45.2176 42.5632 42.75 42.6876M20.25 42.7502H33.75" stroke="black" stroke-width="2" stroke-linecap="round" stroke-linejoin="round"/>
<path d="M32.625 15.7502H36.7227C39.9973 15.7502 41.6344 15.7502 42.9669 16.5461C44.2993 17.3419 45.0756 18.7835 46.6281 21.6666L49.5 27.0002" stroke="black" stroke-width="2" stroke-linecap="round" stroke-linejoin="round"/>
<path d="M16.4847 18.0002L19.8295 15.3584C21.6098 13.9521 22.5 13.249 22.5 12.3752M22.5 12.3752C22.5 11.5015 21.6098 10.7984 19.8295 9.39215L16.4847 6.75024M22.5 12.3752H4.5" stroke="black" stroke-width="2" stroke-linecap="round" stroke-linejoin="round"/>
</svg>
