<svg width="30" height="30" viewBox="0 0 30 30" fill="none" xmlns="http://www.w3.org/2000/svg">
<path d="M4.84111 21.2742L3.33666 12.2998C3.10919 10.9429 2.99546 10.2644 3.35966 9.8197C3.72388 9.375 4.39326 9.375 5.73205 9.375H24.268C25.6068 9.375 26.2761 9.375 26.6404 9.8197C27.0045 10.2644 26.8907 10.9429 26.6634 12.2998L25.1589 21.2742C24.6602 24.2489 24.4109 25.7361 23.3929 26.6181C22.375 27.5 20.9075 27.5 17.9727 27.5H12.0273C9.09245 27.5 7.62504 27.5 6.60706 26.6181C5.58909 25.7361 5.33976 24.2489 4.84111 21.2742Z" stroke="black" stroke-width="2"/>
<path d="M21.875 9.375C21.875 5.57804 18.797 2.5 15 2.5C11.203 2.5 8.125 5.57804 8.125 9.375" stroke="black" stroke-width="2"/>
</svg>
