<svg width="54" height="54" viewBox="0 0 54 54" fill="none" xmlns="http://www.w3.org/2000/svg">
<path d="M33.75 27C33.75 24.5147 35.7647 22.5 38.25 22.5C43.2205 22.5 47.25 26.5295 47.25 31.5C47.25 36.4705 43.2205 40.5 38.25 40.5C35.7647 40.5 33.75 38.4853 33.75 36V27Z" stroke="black" stroke-width="2"/>
<path d="M20.25 27C20.25 24.5147 18.2353 22.5 15.75 22.5C10.7794 22.5 6.75 26.5295 6.75 31.5C6.75 36.4705 10.7794 40.5 15.75 40.5C18.2353 40.5 20.25 38.4853 20.25 36V27Z" stroke="black" stroke-width="2"/>
<path d="M6.75 31.5V24.75C6.75 13.5662 15.8162 4.5 27 4.5C38.1839 4.5 47.25 13.5662 47.25 24.75V35.6539C47.25 40.1726 47.25 42.4319 46.4571 44.1938C45.5546 46.199 43.949 47.8046 41.9438 48.7071C40.1819 49.5 37.9226 49.5 33.4039 49.5H27" stroke="black" stroke-width="2" stroke-linecap="round" stroke-linejoin="round"/>
</svg>
