<svg width="30" height="30" viewBox="0 0 30 30" fill="none" xmlns="http://www.w3.org/2000/svg">
<path d="M8.22197 19.352C6.4535 20.405 1.8167 22.5552 4.64083 25.2458C6.02039 26.56 7.55687 27.5 9.48859 27.5H20.5114C22.4431 27.5 23.9796 26.56 25.3591 25.2458C28.1833 22.5552 23.5465 20.405 21.778 19.352C17.631 16.8827 12.369 16.8827 8.22197 19.352Z" stroke="black" stroke-width="1.875" stroke-linecap="round" stroke-linejoin="round"/>
<path d="M20.625 8.125C20.625 11.2316 18.1066 13.75 15 13.75C11.8934 13.75 9.375 11.2316 9.375 8.125C9.375 5.0184 11.8934 2.5 15 2.5C18.1066 2.5 20.625 5.0184 20.625 8.125Z" stroke="black" stroke-width="1.875"/>
</svg>
