<svg width="54" height="54" viewBox="0 0 54 54" fill="none" xmlns="http://www.w3.org/2000/svg">
<path d="M22.5 28.125C22.5 28.125 23.625 28.125 24.75 30.375C24.75 30.375 28.3234 24.75 31.5 23.625" stroke="black" stroke-width="2" stroke-linecap="round" stroke-linejoin="round"/>
<path d="M38.25 27C38.25 33.2131 33.2131 38.25 27 38.25C20.7868 38.25 15.75 33.2131 15.75 27C15.75 20.7868 20.7868 15.75 27 15.75C33.2131 15.75 38.25 20.7868 38.25 27Z" stroke="black" stroke-width="2" stroke-linecap="round"/>
<path d="M47.25 25.1624V18.6307C47.25 14.9407 47.25 13.0956 46.3408 11.8919C45.4315 10.6882 43.3757 10.1038 39.2641 8.93498C36.455 8.13645 33.9786 7.17442 32.0002 6.29615C29.3026 5.09872 27.954 4.5 27 4.5C26.046 4.5 24.6973 5.09872 21.9998 6.29615C20.0214 7.17442 17.5451 8.13643 14.736 8.93498C10.6243 10.1038 8.56849 10.6882 7.65925 11.8919C6.75 13.0956 6.75 14.9407 6.75 18.6307V25.1624C6.75 37.8191 18.1412 45.4129 23.8365 48.4186C25.2025 49.1395 25.8853 49.5 27 49.5C28.1147 49.5 28.7975 49.1395 30.1635 48.4186C35.8587 45.4129 47.25 37.8191 47.25 25.1624Z" stroke="black" stroke-width="2" stroke-linecap="round"/>
</svg>
